<svg width="18" height="20" viewBox="0 0 18 20" fill="none" xmlns="http://www.w3.org/2000/svg">
<path fill-rule="evenodd" clip-rule="evenodd" d="M8.81234 0C5.78547 0 3.32316 2.46227 3.32316 5.48909C3.32316 7.65009 4.57833 9.52417 6.39794 10.4197C2.70752 11.4712 4.40018e-05 14.8714 4.40018e-05 18.896C-0.000780049 18.9543 0.00997773 19.0121 0.0316919 19.0661C0.053406 19.1202 0.0856434 19.1693 0.126531 19.2108C0.167418 19.2523 0.216141 19.2852 0.269866 19.3077C0.323591 19.3302 0.381247 19.3418 0.439484 19.3418C0.497721 19.3418 0.555378 19.3302 0.609103 19.3077C0.662828 19.2852 0.71155 19.2523 0.752437 19.2108C0.793325 19.1693 0.825562 19.1202 0.847276 19.0661C0.868991 19.0121 0.879748 18.9543 0.878924 18.896C0.878924 14.6219 4.2462 11.1453 8.47669 10.9698C8.58776 10.9767 8.6996 10.9804 8.81234 10.9804C8.92505 10.9804 9.03689 10.9767 9.14793 10.9698C13.3784 11.1453 16.7435 14.6218 16.7435 18.896C16.7427 18.9543 16.7535 19.0121 16.7752 19.0661C16.7969 19.1202 16.8291 19.1693 16.87 19.2108C16.9109 19.2523 16.9596 19.2852 17.0133 19.3077C17.0671 19.3302 17.1247 19.3418 17.183 19.3418C17.2412 19.3418 17.2989 19.3302 17.3526 19.3077C17.4063 19.2852 17.455 19.2523 17.4959 19.2108C17.5368 19.1693 17.569 19.1202 17.5908 19.0661C17.6125 19.0121 17.6232 18.9543 17.6224 18.896C17.6224 14.8716 14.9165 11.4712 11.2266 10.4197C13.0463 9.52419 14.3015 7.65013 14.3015 5.48909C14.3015 2.46227 11.8392 0 8.81234 0H8.81234ZM8.81234 0.87888C11.3644 0.87888 13.4226 2.93704 13.4226 5.48909C13.4226 7.93131 11.5375 9.92302 9.13888 10.0899C9.03052 10.086 8.92165 10.0838 8.81234 10.0838C8.70302 10.0838 8.5942 10.086 8.48583 10.0899C6.08719 9.92305 4.20204 7.93132 4.20204 5.48909C4.20204 2.93704 6.26022 0.87888 8.81234 0.87888Z" fill="#5178AC"/>
</svg>
