<svg width="24" height="21" viewBox="0 0 24 21" fill="none" xmlns="http://www.w3.org/2000/svg">
<path d="M22.9609 4.34186H19.9768C19.9665 4.34186 19.957 4.35856 19.9453 4.34818L15.0708 0.0853697C14.9175 -0.0495349 14.6877 -0.0193172 14.5581 0.139099C14.4282 0.297773 14.4468 0.500208 14.6001 0.634854L18.8594 4.34186H4.68262L8.94432 0.639903C9.09764 0.505387 9.11645 0.287804 8.98682 0.129259C8.8567 -0.0291826 8.62695 -0.039281 8.47412 0.0954942L3.61522 4.3272C3.59815 4.34261 3.583 4.34186 3.56884 4.34186H1.03907C0.46607 4.34186 0 4.90499 0 5.49847V8.61909C0 9.21254 0.46607 9.77947 1.03907 9.77947H1.98925C2.16332 11.592 2.73632 17.4283 3.0371 19.6642C3.08252 20.0022 3.20362 20.8782 4.38232 20.9723C4.74414 21.0011 6.6455 21 9.00487 21C13.4785 21 19.5986 20.9606 19.9873 20.9583L20.0127 20.9545C20.4216 20.9225 21.229 20.6246 21.3591 19.574C21.4683 18.6905 22.1924 11.8509 22.4018 9.77947H22.9609C23.5339 9.77947 24 9.21254 24 8.61909V5.49847C24 4.90499 23.5339 4.34186 22.9609 4.34186ZM20.6377 19.4771C20.5571 20.1295 20.0801 20.2071 19.9663 20.2208C19.3955 20.2241 5.44092 20.2905 4.43822 20.2106C3.88575 20.1665 3.80762 19.9369 3.75732 19.5656C3.46214 17.371 2.90137 11.592 2.72022 9.77947H21.6704C21.4521 11.8509 20.7432 18.6237 20.6377 19.4771ZM23.25 8.67988C23.25 8.85816 23.1103 9.00267 22.9382 9.00267H1.06177C0.889645 9.00267 0.75 8.85816 0.75 8.67988V5.44145C0.75 5.26317 0.889645 5.11866 1.06177 5.11866H22.9382C23.1103 5.11866 23.25 5.26317 23.25 5.44145V8.67988Z" fill="#5178AC"/>
</svg>
