<svg width="18" height="14" viewBox="0 0 18 14" fill="none" xmlns="http://www.w3.org/2000/svg">
<path d="M17.8965 7.32269C17.9639 7.22851 18 7.11654 18 7.00181C18 6.88708 17.9639 6.7751 17.8965 6.68093C17.7465 6.45339 14.0632 1.16755 9 1.16755C7.58587 1.19317 6.20208 1.5708 4.98067 2.26439L2.82703 0.169894C2.7139 0.0607732 2.56094 -0.000315137 2.40161 1.22265e-06C2.24228 0.000317582 2.08957 0.0620131 1.9769 0.171582C1.86424 0.281151 1.8008 0.429668 1.80048 0.584622C1.80015 0.739576 1.86296 0.888343 1.97517 0.998359L3.93684 2.90033C2.45012 3.94256 1.15425 5.22059 0.103478 6.68093C0.0361102 6.7751 0 6.88708 0 7.00181C0 7.11654 0.0361102 7.22851 0.103478 7.32269C0.253453 7.55023 3.93684 12.8361 9 12.8361C10.4141 12.8104 11.7979 12.4328 13.0193 11.7392L15.173 13.8337C15.2876 13.9404 15.4402 14 15.5989 14C15.7576 14 15.9102 13.9404 16.0248 13.8337C16.1372 13.7236 16.2003 13.5747 16.2003 13.4195C16.2003 13.2643 16.1372 13.1154 16.0248 13.0053L14.0632 11.1033C15.5499 10.0611 16.8458 8.78302 17.8965 7.32269ZM9 11.6692C5.25062 11.6692 2.19713 8.11032 1.33927 7.00181C2.31565 5.74933 3.48528 4.65119 4.8067 3.74629L6.06649 4.97732C5.57371 5.65102 5.34226 6.47271 5.4132 7.29659C5.48413 8.12047 5.85288 8.89328 6.454 9.47789C7.05512 10.0625 7.84975 10.4211 8.6969 10.4901C9.54404 10.5591 10.3889 10.334 11.0817 9.85476L12.1315 10.8699C11.1685 11.3764 10.0946 11.6505 9 11.6692ZM10.2118 9.00296C9.75618 9.27025 9.22164 9.38146 8.69345 9.31884C8.16526 9.25622 7.67385 9.02338 7.2976 8.65746C6.92135 8.29154 6.68193 7.81362 6.61755 7.29994C6.55316 6.78626 6.6675 6.2664 6.94234 5.82329L10.2118 9.00296ZM7.7882 5.00066C8.24382 4.73337 8.77836 4.62216 9.30655 4.68478C9.83474 4.7474 10.3262 4.98024 10.7024 5.34616C11.0787 5.71208 11.3181 6.19 11.3825 6.70368C11.4468 7.21736 11.3325 7.73722 11.0577 8.18033L7.7882 5.00066ZM13.1933 10.2573L11.9335 9.0263C12.4263 8.3526 12.6577 7.53091 12.5868 6.70703C12.5159 5.88315 12.1471 5.11034 11.546 4.52573C10.9449 3.94111 10.1503 3.5825 9.3031 3.51351C8.45596 3.44452 7.61107 3.66961 6.91835 4.14886L5.86852 3.1337C6.83148 2.62725 7.90542 2.35313 9 2.3344C12.7494 2.3344 15.8029 5.8933 16.6607 7.00181C15.6843 8.25429 14.5147 9.35243 13.1933 10.2573Z" fill="#A6A6A6"/>
</svg>
