<svg width="19" height="17" viewBox="0 0 19 17" fill="none" xmlns="http://www.w3.org/2000/svg">
<path d="M4.35355 0.646445C4.15829 0.451183 3.84171 0.451183 3.64645 0.646445L0.464467 3.82843C0.269204 4.02369 0.269204 4.34027 0.464467 4.53553C0.659729 4.73079 0.976311 4.73079 1.17157 4.53553L4 1.70711L6.82843 4.53553C7.02369 4.7308 7.34027 4.7308 7.53553 4.53553C7.7308 4.34027 7.7308 4.02369 7.53553 3.82843L4.35355 0.646445ZM4.5 16L4.5 0.999999L3.5 0.999999L3.5 16L4.5 16Z" fill="#5178AC"/>
<path d="M15.3536 16.3536C15.1583 16.5488 14.8417 16.5488 14.6464 16.3536L11.4645 13.1716C11.2692 12.9763 11.2692 12.6597 11.4645 12.4645C11.6597 12.2692 11.9763 12.2692 12.1716 12.4645L15 15.2929L17.8284 12.4645C18.0237 12.2692 18.3403 12.2692 18.5355 12.4645C18.7308 12.6597 18.7308 12.9763 18.5355 13.1716L15.3536 16.3536ZM15.5 1L15.5 16L14.5 16L14.5 1L15.5 1Z" fill="#5178AC"/>
</svg>
