<svg width="232" height="30" viewBox="0 0 232 30" fill="none" xmlns="http://www.w3.org/2000/svg">
<path fill-rule="evenodd" clip-rule="evenodd" d="M94 0H102L92 30H84L94 0ZM68.445 19.068L64.473 22.582L62 30H54L64 0H72L68.294 11.118L81 0H90L73.97 14.181L81 30H73L68.445 19.068ZM49 0H57L47 30H39L49 0ZM14 23.333L10 30H0V9H7V21.667L20 0H28L17.837 16.939L21.918 23.469L36 0H44L26 30H18L14 23.333Z" fill="#D8D8D8"/>
<path fill-rule="evenodd" clip-rule="evenodd" d="M102 30H111L117 11L121 23L132 13L127 30H136L145 0H135L125 10L122 0H111L102 30ZM179 30H188L195 8H202L205 0H189C182 0 176 4 175 10C178 8 183 8 186 8C185 12 179 30 179 30ZM147.81 7C149.622 2 153.81 0 157.81 0H166.81C169.81 0 174.81 3 172.81 9C170.81 15 167.81 22 166.81 25C165.81 28 162.81 30 157.81 30H149.81C145.81 30 139.81 27 142.81 20C145.81 13 146 12 147.81 7ZM151.807 20C150.807 23 150.077 25 153.807 25C157.537 25 158.209 25 160.209 20C162.209 15 162.807 13 163.807 10C164.807 7 162.807 6 160.807 6C158.807 6 157 7 155.807 10C154.614 13 152.807 17 151.807 20ZM205.81 7C207.622 2 211.81 0 215.81 0H224.81C227.81 0 232.81 3 230.81 9C228.81 15 225.81 22 224.81 25C223.81 28 220.81 30 215.81 30H207.81C203.81 30 197.81 27 200.81 20C203.81 13 204 12 205.81 7ZM209.807 20C208.807 23 208.077 25 211.807 25C215.537 25 216.209 25 218.209 20C220.209 15 220.807 13 221.807 10C222.807 7 220.807 6 218.807 6C216.807 6 215 7 213.807 10C212.614 13 210.807 17 209.807 20Z" fill="#4778B1"/>
</svg>
