<svg width="20" height="20" viewBox="0 0 20 20" fill="none" xmlns="http://www.w3.org/2000/svg">
<path d="M17.9607 8.96806C17.9607 4.02948 13.9312 0 8.96806 0C4.00491 0 0 4.02948 0 8.96806C0 13.9066 4.02948 17.9361 8.96806 17.9361C11.2776 17.9361 13.3661 17.0762 14.9631 15.6511L19.312 20L20 19.312L15.6511 14.9631C17.0762 13.3661 17.9607 11.2776 17.9607 8.96806ZM8.96806 16.9779C4.57002 16.9779 0.982801 13.3907 0.982801 8.99263C0.982801 4.5946 4.57002 1.00737 8.96806 1.00737C13.3661 1.00737 16.9533 4.5946 16.9533 8.99263C16.9533 13.3907 13.3907 16.9779 8.96806 16.9779Z" fill="#5178AC"/>
</svg>
