<svg width="18" height="13" viewBox="0 0 18 13" fill="none" xmlns="http://www.w3.org/2000/svg">
<path d="M17.8965 6.98717C17.9639 6.89299 18 6.78102 18 6.66629C18 6.55156 17.9639 6.43958 17.8965 6.34541C17.7465 6.11787 14.0632 0.832031 9 0.832031C7.58587 0.857651 6.14806 1.23181 4.92665 1.9254L3.93684 2.56481C2.45012 3.60704 1.15425 4.88507 0.103478 6.34541C0.0361102 6.43958 0 6.55156 0 6.66629C0 6.78102 0.0361102 6.89299 0.103478 6.98717C0.253453 7.21471 3.93684 12.5006 9 12.5006C10.4141 12.4749 11.7979 12.0973 13.0193 11.4037C13.178 11.4037 13.5 11.1641 13.5 11.1641C13.5 11.1641 14.0632 10.923 14.0632 10.7678C14.1756 10.8779 11.9261 8.45158 14.0632 10.7678C15.5499 9.72558 16.8458 8.4475 17.8965 6.98717ZM9 11.3337C5.25062 11.3337 2.19713 7.7748 1.33927 6.66629C2.31565 5.41381 3.67858 4.06896 5 3.16406L6.91835 3.81334C5.73078 4.34926 5.34226 6.13719 5.4132 6.96107C5.48413 7.78495 5.85288 8.55776 6.454 9.14237C7.05512 9.72698 7.84975 10.0856 8.6969 10.1546C9.54404 10.2236 11.0914 9.84197 11.9335 8.69078L12.1315 10.5344C11.1685 11.0409 10.0946 11.315 9 11.3337ZM10.7024 8.59486C10.2468 8.86215 9.22164 9.20499 8.69345 9.14237C8.16526 9.07975 7.67385 8.68786 7.2976 8.32194C6.92135 7.95602 6.68193 7.4781 6.61755 6.96442C6.55316 6.45074 6.72516 5.60717 7 5.16406L10.7024 8.59486ZM7 5.16406C7.27484 4.72095 8.1463 4.21171 9.30655 4.34926C9.83474 4.41188 10.3262 4.64472 10.7024 5.01064C11.0787 5.37656 11.3181 5.85448 11.3825 6.36816C11.4468 6.88184 11.3825 7.99323 10.7024 8.59486L7 5.16406ZM12.1315 10.5344L11.9335 8.69078C12.4263 8.01708 12.6577 7.19539 12.5868 6.37151C12.5159 5.54763 12.1471 4.77482 11.546 4.19021C10.9449 3.60559 10.1503 3.24698 9.3031 3.17799C8.45596 3.109 7.61107 3.33409 6.91835 3.81334L5 3.16406C5.96296 2.65761 7.90542 2.01761 9 1.99888C12.7494 1.99888 15.8029 5.55778 16.6607 6.66629C15.6843 7.91877 13.4529 9.62951 12.1315 10.5344Z" fill="#A6A6A6"/>
</svg>
