<svg width="14" height="16" viewBox="0 0 14 16" fill="none" xmlns="http://www.w3.org/2000/svg">
<path d="M0 3.0743C0 2.18231 0.288106 1.44693 0.864318 0.868158C1.44747 0.289386 2.19377 0 3.10322 0C4.02654 0 4.77284 0.29279 5.34211 0.878371C5.91833 1.45714 6.20643 2.20955 6.20643 3.13558V3.86075C6.20643 4.75955 5.91485 5.49493 5.3317 6.06689C4.75549 6.63204 4.0196 6.91462 3.12404 6.91462C2.22154 6.91462 1.47524 6.63204 0.885146 6.06689C0.295049 5.49493 0 4.73571 0 3.78925V3.0743ZM1.43706 3.86075C1.43706 4.39186 1.58979 4.83104 1.89525 5.1783C2.20071 5.51876 2.61031 5.68898 3.12404 5.68898C3.61695 5.68898 4.01266 5.52216 4.31118 5.18852C4.61664 4.85487 4.76937 4.39866 4.76937 3.81989V3.0743C4.76937 2.54319 4.62011 2.10401 4.32159 1.75674C4.02307 1.40948 3.61695 1.23585 3.10322 1.23585C2.58948 1.23585 2.18336 1.40948 1.88484 1.75674C1.58632 2.10401 1.43706 2.55681 1.43706 3.11515V3.86075ZM7.38315 11.4393C7.38315 10.5473 7.67126 9.81529 8.24747 9.24332C8.83063 8.66455 9.57693 8.37517 10.4864 8.37517C11.3958 8.37517 12.1421 8.66115 12.7253 9.23311C13.3084 9.80507 13.6 10.5643 13.6 11.5107V12.2359C13.6 13.1279 13.3084 13.8633 12.7253 14.4421C12.1491 15.014 11.4097 15.3 10.5072 15.3C9.6047 15.3 8.8584 15.0174 8.2683 14.4523C7.6782 13.8803 7.38315 13.1211 7.38315 12.1746V11.4393ZM8.82022 12.2359C8.82022 12.7738 8.97295 13.2164 9.27841 13.5637C9.58387 13.9041 9.99347 14.0744 10.5072 14.0744C11.007 14.0744 11.4062 13.9075 11.7047 13.5739C12.0033 13.2334 12.1525 12.7738 12.1525 12.1951V11.4393C12.1525 10.9013 11.9998 10.4621 11.6943 10.1217C11.3958 9.78124 10.9932 9.61101 10.4864 9.61101C9.99347 9.61101 9.59081 9.78124 9.27841 10.1217C8.97295 10.4553 8.82022 10.9081 8.82022 11.4801V12.2359ZM3.56141 13.962L2.46799 13.2879L9.87198 1.66482L10.9654 2.33892L3.56141 13.962Z" fill="white"/>
</svg>
