<svg width="14" height="14" viewBox="0 0 14 14" fill="none" xmlns="http://www.w3.org/2000/svg">
<path d="M6.99921 0C8.07778 0.000186674 9.14173 0.249468 10.1081 0.728401C11.0744 1.20733 11.917 1.90297 12.5702 2.76105C13.2233 3.61913 13.6693 4.61645 13.8735 5.67523C14.0776 6.73401 14.0343 7.82562 13.7469 8.86492C13.4596 9.90421 12.936 10.8631 12.2169 11.6668C11.4978 12.4704 10.6028 13.0972 9.60152 13.4981C8.60028 13.899 7.51992 14.0633 6.44472 13.9781C5.36952 13.8929 4.32854 13.5605 3.40298 13.0069L3.07809 12.8147L1.364 13.2813C1.27477 13.3056 1.1807 13.3059 1.09132 13.2822C1.00194 13.2585 0.920424 13.2115 0.855029 13.1462C0.789635 13.0808 0.742687 12.9993 0.718942 12.9099C0.695197 12.8206 0.695499 12.7265 0.719817 12.6373L1.18662 10.9256C1.0055 10.6195 0.887865 10.4141 0.829048 10.304C0.257995 9.2377 -0.0269449 8.04166 0.00200529 6.8325C0.0309555 5.62333 0.372808 4.4423 0.994237 3.40453C1.61567 2.36676 2.49546 1.50767 3.54786 0.911013C4.60027 0.314352 5.78935 0.000481997 6.99921 0V0ZM6.99921 9.62453C6.89525 9.62453 6.79363 9.65535 6.70719 9.71309C6.62076 9.77083 6.55339 9.8529 6.5136 9.94891C6.47382 10.0449 6.46341 10.1506 6.48369 10.2525C6.50398 10.3544 6.55404 10.4481 6.62754 10.5216C6.70105 10.595 6.79471 10.6451 6.89667 10.6654C6.99863 10.6856 7.10431 10.6752 7.20036 10.6355C7.2964 10.5957 7.37849 10.5283 7.43625 10.4419C7.494 10.3555 7.52483 10.2539 7.52483 10.15C7.52495 10.081 7.51144 10.0126 7.48507 9.94877C7.4587 9.88496 7.41998 9.82698 7.37115 9.77816C7.32232 9.72935 7.26433 9.69064 7.2005 9.66428C7.13668 9.63792 7.06827 9.62441 6.99921 9.62453V9.62453ZM6.95813 3.5C6.57283 3.49868 6.19325 3.59309 5.85348 3.77473C5.51371 3.95638 5.22441 4.21958 5.01158 4.54067C4.89971 4.70956 4.81145 4.89295 4.74923 5.08573C4.72772 5.15137 4.71934 5.2206 4.72459 5.28947C4.72984 5.35834 4.7486 5.4255 4.77981 5.48712C4.81102 5.54874 4.85406 5.60361 4.90648 5.6486C4.9589 5.6936 5.01968 5.72782 5.08533 5.74933C5.15098 5.77084 5.22023 5.77922 5.28912 5.77397C5.35801 5.76873 5.42519 5.74997 5.48683 5.71877C5.61132 5.65576 5.70567 5.54589 5.74912 5.41333C5.7819 5.31064 5.82871 5.21296 5.88823 5.12307C6.00549 4.94712 6.16465 4.80306 6.35141 4.70385C6.53816 4.60463 6.74665 4.55337 6.95813 4.55467C7.12189 4.55015 7.2849 4.57849 7.43752 4.63802C7.59014 4.69755 7.72927 4.78706 7.8467 4.90126C7.96413 5.01545 8.05747 5.15203 8.1212 5.3029C8.18494 5.45377 8.21778 5.61589 8.21778 5.77967C8.21778 5.94344 8.18494 6.10556 8.1212 6.25643C8.05747 6.40731 7.96413 6.54388 7.8467 6.65808C7.72927 6.77228 7.59014 6.86178 7.43752 6.92131C7.2849 6.98084 7.12189 7.00919 6.95813 7.00467C6.81889 7.00467 6.68534 7.0599 6.58679 7.15824C6.48825 7.25658 6.43276 7.39 6.43252 7.5292V8.5792C6.42953 8.65001 6.4409 8.72068 6.46594 8.78698C6.49099 8.85328 6.52919 8.91383 6.57825 8.96499C6.62731 9.01615 6.68621 9.05685 6.75142 9.08466C6.81662 9.11247 6.88678 9.12681 6.95767 9.12681C7.02856 9.12681 7.09871 9.11247 7.16392 9.08466C7.22912 9.05685 7.28802 9.01615 7.33708 8.96499C7.38614 8.91383 7.42434 8.85328 7.44939 8.78698C7.47443 8.72068 7.4858 8.65001 7.48282 8.5792V7.99587C8.03972 7.8813 8.53343 7.56219 8.86649 7.10151C9.19955 6.64084 9.34777 6.07208 9.28188 5.5075C9.21599 4.94292 8.94079 4.42354 8.51059 4.05189C8.08039 3.68024 7.52646 3.48332 6.95813 3.5V3.5Z" fill="#5178AC"/>
</svg>
