<svg width="22" height="15" viewBox="0 0 22 15" fill="none" xmlns="http://www.w3.org/2000/svg">
<path d="M15.2777 8.51185C13.7994 8.51185 12.5664 9.55615 12.2833 10.9437L0.61148 10.9439C0.273878 10.9439 0.000314106 11.216 0.000314106 11.5519C0.000314106 11.8876 0.273878 12.1598 0.61148 12.1598L12.2838 12.1606C12.5672 13.5477 13.7999 14.5918 15.278 14.5918C16.7559 14.5918 17.9889 13.5477 18.2722 12.1606L21.3888 12.1598C21.7264 12.1598 22 11.8876 22 11.5519C22 11.216 21.7264 10.9439 21.3888 10.9439L18.2722 10.9437C17.9891 9.55615 16.7561 8.51185 15.278 8.51185H15.2777ZM15.2777 9.72796C16.2901 9.72796 17.111 10.5445 17.111 11.5519C17.111 12.5592 16.2901 13.3759 15.2777 13.3759C14.2651 13.3759 13.4444 12.5592 13.4444 11.5519C13.4444 10.5445 14.2651 9.72796 15.2777 9.72796ZM6.72199 0C5.24389 0 4.01092 1.0443 3.72776 2.43181L0.611166 2.43201C0.273563 2.43201 0 2.70418 0 3.03986C0 3.37575 0.273563 3.64792 0.611166 3.64792L3.72776 3.64873C4.01114 5.03583 5.2441 6.07992 6.72199 6.07992C8.20009 6.07992 9.43285 5.03583 9.71622 3.64873L21.3885 3.64792C21.7261 3.64792 21.9997 3.37575 21.9997 3.03986C21.9997 2.70418 21.7261 2.43201 21.3885 2.43201L9.71675 2.43181C9.43357 1.0443 8.20062 0 6.72231 0H6.72199ZM6.72199 1.2159C7.7346 1.2159 8.55528 2.03262 8.55528 3.03987C8.55528 4.04732 7.7346 4.86383 6.72199 4.86383C5.7096 4.86383 4.8887 4.04732 4.8887 3.03987C4.8887 2.03262 5.7096 1.2159 6.72199 1.2159Z" fill="#5178AC"/>
</svg>
