<svg width="14" height="17" viewBox="0 0 14 17" fill="none" xmlns="http://www.w3.org/2000/svg">
<path d="M12.2978 1.7H9.2599V1.275C9.2599 0.936849 9.12557 0.612548 8.88646 0.373439C8.64735 0.13433 8.32305 0 7.9849 0H5.5879C5.24975 0 4.92545 0.13433 4.68634 0.373439C4.44723 0.612548 4.3129 0.936849 4.3129 1.275V1.7H1.275C0.936849 1.7 0.612548 1.83433 0.373439 2.07344C0.13433 2.31255 0 2.63685 0 2.975V3.7315C0.00087183 3.96273 0.0646102 4.18937 0.184392 4.38716C0.304174 4.58495 0.47549 4.74644 0.68 4.85435V14.875C0.68 15.4386 0.903883 15.9791 1.3024 16.3776C1.70091 16.7761 2.24142 17 2.805 17H10.7627C11.3263 17 11.8668 16.7761 12.2653 16.3776C12.6638 15.9791 12.8877 15.4386 12.8877 14.875V4.85435C13.0922 4.74644 13.2635 4.58495 13.3833 4.38716C13.5031 4.18937 13.5668 3.96273 13.5677 3.7315V2.975C13.5677 2.63773 13.4341 2.3142 13.1961 2.07524C12.9581 1.83627 12.6351 1.70135 12.2978 1.7ZM5.1629 1.275C5.1629 1.16228 5.20768 1.05418 5.28738 0.97448C5.36708 0.894777 5.47518 0.85 5.5879 0.85H7.9849C8.09762 0.85 8.20572 0.894777 8.28542 0.97448C8.36512 1.05418 8.4099 1.16228 8.4099 1.275V1.7H5.1629V1.275ZM0.85 2.975C0.85 2.86228 0.894777 2.75418 0.97448 2.67448C1.05418 2.59478 1.16228 2.55 1.275 2.55H12.2978C12.4105 2.55 12.5186 2.59478 12.5983 2.67448C12.678 2.75418 12.7228 2.86228 12.7228 2.975V3.7315C12.7228 3.84422 12.678 3.95232 12.5983 4.03202C12.5186 4.11172 12.4105 4.1565 12.2978 4.1565H1.275C1.16228 4.1565 1.05418 4.11172 0.97448 4.03202C0.894777 3.95232 0.85 3.84422 0.85 3.7315V2.975ZM10.7653 16.15H2.80755C2.4694 16.15 2.1451 16.0157 1.90599 15.7766C1.66688 15.5375 1.53255 15.2132 1.53255 14.875V5.0065H12.0403V14.875C12.0403 15.2132 11.9059 15.5375 11.6668 15.7766C11.4277 16.0157 11.1034 16.15 10.7653 16.15ZM7.2114 7.225V13.9239C7.2114 14.0366 7.16662 14.1447 7.08692 14.2244C7.00722 14.3041 6.89912 14.3489 6.7864 14.3489C6.67368 14.3489 6.56558 14.3041 6.48588 14.2244C6.40618 14.1447 6.3614 14.0366 6.3614 13.9239V7.225C6.3614 7.11228 6.40618 7.00418 6.48588 6.92448C6.56558 6.84478 6.67368 6.8 6.7864 6.8C6.89912 6.8 7.00722 6.84478 7.08692 6.92448C7.16662 7.00418 7.2114 7.11228 7.2114 7.225ZM10.2714 7.225V13.9239C10.2714 14.0366 10.2266 14.1447 10.1469 14.2244C10.0672 14.3041 9.95912 14.3489 9.8464 14.3489C9.73368 14.3489 9.62558 14.3041 9.54588 14.2244C9.46618 14.1447 9.4214 14.0366 9.4214 13.9239V7.225C9.4214 7.11228 9.46618 7.00418 9.54588 6.92448C9.62558 6.84478 9.73368 6.8 9.8464 6.8C9.95912 6.8 10.0672 6.84478 10.1469 6.92448C10.2266 7.00418 10.2714 7.11228 10.2714 7.225ZM4.1514 7.225V13.9239C4.1514 14.0366 4.10662 14.1447 4.02692 14.2244C3.94722 14.3041 3.83912 14.3489 3.7264 14.3489C3.61368 14.3489 3.50558 14.3041 3.42588 14.2244C3.34618 14.1447 3.3014 14.0366 3.3014 13.9239V7.225C3.3014 7.11228 3.34618 7.00418 3.42588 6.92448C3.50558 6.84478 3.61368 6.8 3.7264 6.8C3.83912 6.8 3.94722 6.84478 4.02692 6.92448C4.10662 7.00418 4.1514 7.11228 4.1514 7.225Z" fill="#ABABAB"/>
</svg>
