<svg width="40" height="40" viewBox="0 0 40 40" fill="none" xmlns="http://www.w3.org/2000/svg">
<circle cx="20" cy="20" r="20" fill="#4778B1"/>
<path d="M23.6234 11.004L21.2249 11C18.5302 11 16.7888 12.8353 16.7888 15.6759V17.8318H14.3771C14.1688 17.8318 14 18.0054 14 18.2195V21.3431C14 21.5572 14.1689 21.7306 14.3771 21.7306H16.7888V29.6126C16.7888 29.8267 16.9575 30 17.1659 30H20.3124C20.5208 30 20.6896 29.8265 20.6896 29.6126V21.7306H23.5093C23.7177 21.7306 23.8865 21.5572 23.8865 21.3431L23.8876 18.2195C23.8876 18.1167 23.8478 18.0182 23.7772 17.9455C23.7066 17.8728 23.6103 17.8318 23.5103 17.8318H20.6896V16.0042C20.6896 15.1258 20.8933 14.6799 22.0073 14.6799L23.623 14.6793C23.8312 14.6793 24 14.5058 24 14.2919V11.3914C24 11.1777 23.8314 11.0043 23.6234 11.004Z" fill="white"/>
</svg>
