<svg width="40" height="40" viewBox="0 0 40 40" fill="none" xmlns="http://www.w3.org/2000/svg">
<circle cx="20" cy="20" r="20" fill="#4778B1"/>
<g clip-path="url(#clip0_602_7419)">
<path d="M31.9765 15.0561C31.9203 13.7809 31.714 12.9042 31.4186 12.1445C31.1139 11.3381 30.645 10.6162 30.0308 10.016C29.4306 9.40652 28.7039 8.93292 27.9069 8.63294C27.1428 8.33753 26.2707 8.13131 24.9955 8.07509C23.7108 8.0141 23.3029 8 20.0445 8C16.786 8 16.3782 8.0141 15.0982 8.07033C13.823 8.12655 12.9463 8.33295 12.1868 8.62817C11.3802 8.93292 10.6583 9.40176 10.0581 10.016C9.44864 10.6162 8.97522 11.3429 8.67505 12.1399C8.37964 12.9042 8.17343 13.7761 8.1172 15.0513C8.05622 16.336 8.04211 16.7439 8.04211 20.0023C8.04211 23.2608 8.05622 23.6686 8.11244 24.9486C8.16866 26.2238 8.37507 27.1005 8.67047 27.8602C8.97522 28.6666 9.44864 29.3885 10.0581 29.9887C10.6583 30.5982 11.385 31.0718 12.182 31.3717C12.9463 31.6672 13.8182 31.8734 15.0936 31.9296C16.3734 31.986 16.7814 31.9999 20.0399 31.9999C23.2983 31.9999 23.7062 31.986 24.9862 31.9296C26.2614 31.8734 27.1381 31.6672 27.8976 31.3717C29.5105 30.7482 30.7857 29.4729 31.4093 27.8602C31.7045 27.096 31.9109 26.2238 31.9671 24.9486C32.0234 23.6686 32.0375 23.2608 32.0375 20.0023C32.0375 16.7439 32.0327 16.336 31.9765 15.0561ZM29.8152 24.8549C29.7636 26.027 29.5667 26.6599 29.4026 27.0819C28.9993 28.1274 28.1695 28.9572 27.124 29.3605C26.702 29.5246 26.0645 29.7215 24.897 29.7729C23.6311 29.8293 23.2514 29.8433 20.0492 29.8433C16.847 29.8433 16.4626 29.8293 15.2013 29.7729C14.0292 29.7215 13.3962 29.5246 12.9743 29.3605C12.454 29.1682 11.9804 28.8634 11.596 28.4649C11.1975 28.0758 10.8927 27.6069 10.7004 27.0866C10.5363 26.6647 10.3394 26.027 10.288 24.8596C10.2316 23.5937 10.2176 23.2139 10.2176 20.0117C10.2176 16.8095 10.2316 16.425 10.288 15.1639C10.3394 13.9918 10.5363 13.3589 10.7004 12.9369C10.8927 12.4165 11.1975 11.943 11.6007 11.5584C11.9897 11.1599 12.4586 10.8552 12.9791 10.6631C13.401 10.499 14.0387 10.3021 15.2061 10.2504C16.4719 10.1942 16.8518 10.1801 20.0538 10.1801C23.2608 10.1801 23.6404 10.1942 24.9017 10.2504C26.0738 10.3021 26.7068 10.499 27.1287 10.6631C27.649 10.8552 28.1226 11.1599 28.507 11.5584C28.9056 11.9476 29.2103 12.4165 29.4026 12.9369C29.5667 13.3589 29.7636 13.9964 29.8152 15.1639C29.8715 16.4298 29.8856 16.8095 29.8856 20.0117C29.8856 23.2139 29.8715 23.589 29.8152 24.8549Z" fill="white"/>
<path d="M20.0444 13.8369C16.6407 13.8369 13.8792 16.5983 13.8792 20.0022C13.8792 23.406 16.6407 26.1674 20.0444 26.1674C23.4483 26.1674 26.2097 23.406 26.2097 20.0022C26.2097 16.5983 23.4483 13.8369 20.0444 13.8369ZM20.0444 24.0014C17.8363 24.0014 16.0452 22.2105 16.0452 20.0022C16.0452 17.7939 17.8363 16.0029 20.0444 16.0029C22.2527 16.0029 24.0437 17.7939 24.0437 20.0022C24.0437 22.2105 22.2527 24.0014 20.0444 24.0014Z" fill="white"/>
<path d="M27.893 13.5934C27.893 14.3882 27.2485 15.0327 26.4535 15.0327C25.6586 15.0327 25.0142 14.3882 25.0142 13.5934C25.0142 12.7983 25.6586 12.1541 26.4535 12.1541C27.2485 12.1541 27.893 12.7983 27.893 13.5934Z" fill="white"/>
</g>
<defs>
<clipPath id="clip0_602_7419">
<rect width="24" height="24" fill="white" transform="translate(8 8)"/>
</clipPath>
</defs>
</svg>
