<svg width="40" height="40" viewBox="0 0 40 40" fill="none" xmlns="http://www.w3.org/2000/svg">
<circle cx="20" cy="20" r="20" fill="#4778B1"/>
<path fill-rule="evenodd" clip-rule="evenodd" d="M20.0789 26.9498C20.0789 26.9498 20.476 26.9077 20.6793 26.6988C20.8655 26.5075 20.859 26.1464 20.859 26.1464C20.859 26.1464 20.8343 24.4602 21.6531 24.2112C22.4601 23.9664 23.4964 25.8418 24.596 26.563C25.4267 27.1083 26.0573 26.9889 26.0573 26.9889L28.9959 26.9498C28.9959 26.9498 30.5325 26.8593 29.804 25.704C29.7437 25.6093 29.379 24.8491 27.6197 23.2874C25.7764 21.6526 26.0239 21.917 28.2427 19.0889C29.5942 17.3667 30.1343 16.3153 29.9654 15.8657C29.8051 15.4357 28.8108 15.5499 28.8108 15.5499L25.5031 15.5694C25.5031 15.5694 25.2578 15.5375 25.076 15.6414C24.8984 15.7433 24.7833 15.9809 24.7833 15.9809C24.7833 15.9809 24.2603 17.3132 23.562 18.4469C22.0889 20.8378 21.5003 20.9644 21.2593 20.8162C20.6987 20.4695 20.8386 19.4253 20.8386 18.6836C20.8386 16.3657 21.2066 15.3997 20.123 15.1497C19.7636 15.0664 19.4989 15.0118 18.5789 15.0026C17.3985 14.9913 16.4 15.0067 15.834 15.2711C15.4574 15.447 15.1669 15.84 15.3444 15.8626C15.5629 15.8904 16.0578 15.9902 16.3204 16.3318C16.6593 16.7731 16.6475 17.7628 16.6475 17.7628C16.6475 17.7628 16.8422 20.4911 16.1923 20.8296C15.7469 21.0621 15.1357 20.5878 13.8219 18.4181C13.1493 17.3071 12.6415 16.0787 12.6415 16.0787C12.6415 16.0787 12.5435 15.8493 12.3681 15.7258C12.1562 15.5766 11.8603 15.5303 11.8603 15.5303L8.71721 15.5499C8.71721 15.5499 8.24484 15.5622 8.0716 15.7587C7.91773 15.9326 8.05976 16.2937 8.05976 16.2937C8.05976 16.2937 10.5206 21.7987 13.3075 24.5734C15.8631 27.1165 18.764 26.9498 18.764 26.9498H20.0789Z" fill="white"/>
</svg>
