<svg width="40" height="40" viewBox="0 0 40 40" fill="none" xmlns="http://www.w3.org/2000/svg">
<circle cx="20" cy="20" r="20" fill="#4778B1"/>
<path d="M31.0225 14.7886L31.023 14.7906C31.2642 15.6822 31.3867 17.0974 31.4461 18.3266C31.4754 18.9336 31.4889 19.4823 31.495 19.8793C31.4981 20.0777 31.4993 20.2379 31.4997 20.3482C31.5 20.4034 31.5 20.446 31.5 20.4747L31.4999 20.5071L31.4999 20.5151L31.4999 20.517L31.4999 20.5175L31.4999 20.5175V20.52V20.5201V20.5205L31.4999 20.5224L31.4999 20.5304L31.4998 20.5627C31.4997 20.5913 31.4994 20.6338 31.499 20.6887C31.498 20.7985 31.4961 20.9581 31.4923 21.1556C31.4846 21.551 31.4693 22.0975 31.4388 22.7023C31.3769 23.9256 31.2547 25.3378 31.0222 26.2326C30.7905 27.1016 30.1132 27.7844 29.2602 28.0172C28.8419 28.1283 28.0656 28.2199 27.0946 28.2904C26.1363 28.36 25.0292 28.4066 23.9761 28.4377C22.9238 28.4688 21.9294 28.4844 21.1978 28.4922C20.8321 28.4961 20.5323 28.4981 20.3241 28.499C20.22 28.4995 20.1388 28.4998 20.0837 28.4999L20.021 28.5L20.0051 28.5L20.0012 28.5H20.0002H20L19.9999 29L19.9999 28.5H19.9997H19.9987L19.9948 28.5L19.979 28.5L19.9165 28.4999C19.8616 28.4997 19.7806 28.4995 19.6767 28.499C19.469 28.498 19.17 28.496 18.8051 28.4919C18.0752 28.4838 17.0828 28.4676 16.0318 28.4352C14.9801 28.4028 13.8739 28.3544 12.9151 28.282C11.9423 28.2087 11.1635 28.1134 10.7417 27.9978L10.7409 27.9976C9.88725 27.7651 9.20929 27.0817 8.9776 26.2121C8.74537 25.3282 8.62301 23.9165 8.56114 22.6898C8.53058 22.0838 8.51528 21.5354 8.50763 21.1385C8.50381 20.9401 8.5019 20.7799 8.50095 20.6695C8.50047 20.6143 8.50023 20.5716 8.50012 20.5429L8.50001 20.5104L8.5 20.5024L8.5 20.5005L8.5 20.5001V20.5V20.5V20.4999L8.5 20.4995L8.5 20.4976L8.50001 20.4896L8.50012 20.4573C8.50023 20.4287 8.50047 20.3862 8.50095 20.3313C8.5019 20.2215 8.50381 20.0619 8.50763 19.8644C8.51528 19.469 8.53058 18.9225 8.56114 18.3177C8.62297 17.0943 8.74525 15.6821 8.97777 14.7873C9.2098 13.9173 9.90771 13.2149 10.7408 12.9825C11.1593 12.8715 11.9352 12.7801 12.9053 12.7096C13.8636 12.64 14.9707 12.5934 16.0238 12.5623C17.0761 12.5312 18.0705 12.5156 18.8021 12.5078C19.1678 12.5039 19.4676 12.5019 19.6758 12.501C19.7799 12.5005 19.8611 12.5002 19.9162 12.5001L19.9789 12.5L19.9948 12.5L19.9987 12.5L19.9997 12.5H19.9999L19.9999 12L20 12.5H20.0002L20.0012 12.5L20.0051 12.5L20.021 12.5L20.0836 12.5001C20.1387 12.5003 20.2199 12.5005 20.324 12.501C20.5322 12.502 20.8319 12.504 21.1976 12.5081C21.9291 12.5162 22.9233 12.5324 23.9755 12.5648C25.0285 12.5972 26.1353 12.6456 27.0931 12.718C28.0654 12.7914 28.8408 12.8867 29.2569 13.0019L29.259 13.0024C30.1129 13.235 30.791 13.9186 31.0225 14.7886Z" fill="white" stroke="white"/>
<path d="M17 16V25L24 20.5L17 16Z" fill="#4778B1"/>
</svg>
