<svg width="41" height="48" viewBox="0 0 41 48" fill="none" xmlns="http://www.w3.org/2000/svg">
<path d="M30.9587 33.7809C30.7715 33.7809 30.5824 33.7282 30.4141 33.6178C29.9549 33.3166 29.8269 32.7001 30.1281 32.2409C30.1761 32.1678 30.2374 32.0761 30.3097 31.968C32.1446 29.2249 33.0751 27.2744 33.0751 26.1707C33.0751 25.7598 32.982 25.6493 32.5774 25.5796C32.0361 25.4865 31.6728 24.9723 31.7659 24.4309C31.8591 23.8898 32.3741 23.5262 32.9146 23.6196C34.2805 23.8546 35.0639 24.7844 35.0639 26.1707C35.0639 28.1802 33.4066 30.9154 31.9627 33.0738C31.8944 33.1759 31.8363 33.2626 31.791 33.3318C31.6002 33.6229 31.2827 33.7809 30.9587 33.7809Z" fill="#4778B1"/>
<path d="M34.778 41.7654H26.1276C25.5785 41.7654 25.1332 41.3202 25.1332 40.7709C25.1332 40.2217 25.5785 39.7765 26.1276 39.7765H33.8229C34.0536 36.656 35.2543 35.0869 36.4188 33.5649C37.3211 32.3858 38.1734 31.2718 38.6641 29.3336C38.7182 29.1214 38.7822 28.7166 38.7822 27.9861C38.7822 26.2639 38.4185 23.6466 37.8328 21.1553C37.7072 20.6207 38.0386 20.0855 38.5733 19.9598C39.1082 19.8346 39.6432 20.1657 39.7688 20.7003C40.3963 23.3698 40.771 26.0934 40.771 27.9862C40.771 28.7485 40.7124 29.3494 40.5917 29.8232C40.0012 32.1561 38.937 33.5467 37.9983 34.7736C36.8167 36.3178 35.7962 37.6514 35.7724 40.7786C35.7682 41.3247 35.3243 41.7654 34.778 41.7654ZM24.8868 38.0602C24.8715 38.0602 24.8561 38.0598 24.8405 38.0591C24.2919 38.0339 23.8675 37.5688 23.8927 37.0203C23.9097 36.6478 23.9369 36.1481 23.97 35.8828C24.1629 34.2754 25.3641 31.2291 26.7634 28.8013C28.0721 26.5308 30.0806 23.8403 32.3267 23.6466C31.8596 21.9808 31.4822 19.9082 31.4822 18.0653C31.4822 17.4129 31.5308 16.821 31.6266 16.3061C31.8964 14.8191 33.1389 12.7192 35.0538 12.7192C35.2714 12.7192 35.4915 12.7479 35.7078 12.8043C36.6371 13.0494 37.4331 13.9972 38.2154 15.7877C38.4353 16.291 38.2055 16.8772 37.7023 17.097C37.1988 17.3167 36.6128 17.0872 36.3928 16.5839C35.6667 14.9219 35.2013 14.7278 35.1967 14.7261C35.1526 14.7148 35.1029 14.7081 35.0538 14.7081C34.4633 14.7081 33.7392 15.8027 33.5826 16.6656C33.5083 17.0652 33.4711 17.5348 33.4711 18.0654C33.4711 20.2878 34.1223 23.0798 34.7657 24.6892C34.9366 25.1169 34.7915 25.6061 34.4149 25.8712C34.0384 26.1367 33.529 26.1085 33.1838 25.8034C33.1459 25.77 33.0285 25.6871 32.7589 25.6408C32.7556 25.6402 32.7523 25.6397 32.7489 25.6391C32.6953 25.6293 32.6396 25.6244 32.5835 25.6244C31.765 25.6244 30.2588 26.72 28.4866 29.7947C27.0773 32.2397 26.0872 34.9332 25.9442 36.1247C25.9366 36.1865 25.9108 36.4261 25.8795 37.1114C25.8549 37.6443 25.415 38.0601 24.8868 38.0602Z" fill="#4778B1"/>
<path d="M37.7877 47.7317H23.8659C23.3168 47.7317 22.8715 47.2865 22.8715 46.7373V40.7708C22.8715 40.2216 23.3168 39.7764 23.8659 39.7764H27.9258C28.4749 39.7764 28.9202 40.2216 28.9202 40.7708C28.9202 41.32 28.4749 41.7652 27.9258 41.7652H24.8603V45.7428H36.6138L35.9508 41.7652H32.8978C32.3487 41.7652 31.9034 41.32 31.9034 40.7708C31.9034 40.2216 32.3487 39.7764 32.8978 39.7764H36.7932C37.2794 39.7764 37.6943 40.1278 37.7741 40.6072L38.7686 46.5737C38.8166 46.8621 38.7353 47.1569 38.5464 47.38C38.3575 47.6031 38.0799 47.7317 37.7877 47.7317Z" fill="#4778B1"/>
<path d="M33.8099 44.7491C33.5484 44.7491 33.2918 44.6427 33.1069 44.4576C32.9219 44.2726 32.8155 44.0161 32.8155 43.7547C32.8155 43.492 32.9218 43.2365 33.1069 43.0516C33.2918 42.8657 33.5484 42.7603 33.8099 42.7603C34.0714 42.7603 34.328 42.8657 34.5129 43.0516C34.6978 43.2365 34.8043 43.4921 34.8043 43.7547C34.8043 44.0161 34.6979 44.2727 34.5129 44.4576C34.328 44.6427 34.0714 44.7491 33.8099 44.7491Z" fill="#4778B1"/>
<path d="M9.81202 33.7805C9.48814 33.7805 9.17063 33.6225 8.9797 33.3315C8.93445 33.2625 8.87658 33.176 8.80836 33.0739C7.36437 30.9155 5.70679 28.18 5.70679 26.1702C5.70679 24.784 6.49029 23.8541 7.85621 23.6192C8.39767 23.5256 8.91168 23.8893 9.00486 24.4305C9.09803 24.9718 8.73468 25.4861 8.19352 25.5792C7.78869 25.6489 7.69561 25.7594 7.69561 26.1702C7.69561 27.2741 8.62619 29.2249 10.4614 31.9682C10.5335 32.076 10.5946 32.1675 10.6425 32.2403C10.9438 32.6996 10.8158 33.316 10.3566 33.6174C10.1885 33.7278 9.99917 33.7805 9.81202 33.7805Z" fill="#4778B1"/>
<path d="M14.6433 41.7651H5.99283C5.4466 41.7651 5.00259 41.3244 4.99852 40.7782C4.97465 37.6511 3.95419 36.3175 2.77262 34.7732C1.8338 33.5463 0.769676 32.1558 0.178796 29.8215C0.058571 29.3494 0 28.7484 0 27.9857C0 26.0931 0.374695 23.3695 1.00207 20.7C1.12786 20.1654 1.66316 19.8343 2.19765 19.9596C2.73225 20.0853 3.06379 20.6206 2.93809 21.1552C2.35258 23.6463 1.98883 26.2636 1.98883 27.9857C1.98883 28.7167 2.05287 29.1213 2.10647 29.3322C2.59751 31.2716 3.44982 32.3855 4.35205 33.5647C5.51661 35.0867 6.71726 36.6558 6.94807 39.7763H14.6433C15.1925 39.7763 15.6377 40.2215 15.6377 40.7708C15.6377 41.32 15.1925 41.7651 14.6433 41.7651ZM15.8841 38.0597C15.3558 38.0597 14.916 37.644 14.8915 37.1109C14.86 36.4246 14.8344 36.1855 14.8273 36.1286C14.6839 34.9328 13.694 32.2393 12.2846 29.7942C10.5124 26.7195 9.0062 25.624 8.1876 25.624C8.13152 25.624 8.07573 25.6289 8.02203 25.6386C8.01885 25.6392 8.01557 25.6398 8.01219 25.6404C7.7424 25.6866 7.62516 25.7693 7.58747 25.8029C7.24221 26.1078 6.73277 26.1362 6.35629 25.8709C5.97971 25.6057 5.83452 25.1165 6.00546 24.6887C6.64875 23.0792 7.29999 20.2872 7.29999 18.0648C7.29999 17.5342 7.2627 17.0646 7.18921 16.6693C7.03189 15.8022 6.30786 14.7076 5.71728 14.7076C5.66816 14.7076 5.61854 14.7143 5.56543 14.7282C5.56772 14.7282 5.10283 14.9251 4.3783 16.5834C4.15844 17.0868 3.57213 17.3163 3.06896 17.0966C2.56559 16.8767 2.33598 16.2905 2.55584 15.7872C3.33805 13.9967 4.13407 13.0489 5.06067 12.8045C5.27944 12.7474 5.4995 12.7188 5.71738 12.7188C7.63232 12.7188 8.87474 14.8188 9.14542 16.3099C9.24039 16.8207 9.28891 17.4125 9.28891 18.0647C9.28891 19.9076 8.91153 21.9803 8.44456 23.6462C10.6906 23.8399 12.6993 26.5304 14.0079 28.8008C15.4072 31.2286 16.6083 34.275 16.8017 35.8872C16.834 36.1468 16.8615 36.6467 16.8785 37.0195C16.9037 37.5682 16.4793 38.0333 15.9308 38.0585C15.915 38.0593 15.8995 38.0597 15.8841 38.0597Z" fill="#4778B1"/>
<path d="M16.9049 47.7316H2.98314C2.69088 47.7316 2.41344 47.603 2.2244 47.3799C2.03536 47.1569 1.95422 46.8621 2.00235 46.5737L2.99676 40.6072C3.07671 40.1278 3.49158 39.7764 3.97755 39.7764H7.87297C8.42208 39.7764 8.86738 40.2216 8.86738 40.7708C8.86738 41.32 8.42208 41.7652 7.87297 41.7652H4.82002L4.15704 45.7428H15.9105V41.7652H12.845C12.2958 41.7652 11.8506 41.32 11.8506 40.7708C11.8506 40.2216 12.2958 39.7764 12.845 39.7764H16.9049C17.4541 39.7764 17.8993 40.2216 17.8993 40.7708V46.7373C17.8993 47.2864 17.4541 47.7316 16.9049 47.7316Z" fill="#4778B1"/>
<path d="M6.96084 44.7491C6.69931 44.7491 6.44275 44.6427 6.25779 44.4576C6.07293 44.2727 5.96643 44.0161 5.96643 43.7547C5.96643 43.492 6.07283 43.2365 6.25779 43.0516C6.44275 42.8657 6.69931 42.7603 6.96084 42.7603C7.22237 42.7603 7.47893 42.8657 7.66389 43.0516C7.84876 43.2365 7.95526 43.4921 7.95526 43.7547C7.95526 44.0161 7.84886 44.2727 7.66389 44.4576C7.47893 44.6427 7.22237 44.7491 6.96084 44.7491Z" fill="#4778B1"/>
<path d="M32.5696 8.95002C32.205 8.95002 31.8539 8.74875 31.6796 8.40051C29.7304 4.50559 25.2971 1.98883 20.3854 1.98883C15.4738 1.98883 11.0405 4.50549 9.09123 8.40041C8.84551 8.89145 8.24806 9.09053 7.75692 8.84461C7.26588 8.59879 7.067 8.00145 7.31272 7.51031C9.59609 2.94794 14.7275 0 20.3854 0C26.0434 0 31.1748 2.94804 33.4581 7.51041C33.704 8.00155 33.5051 8.59889 33.0139 8.84471C32.8711 8.91621 32.7192 8.95002 32.5696 8.95002Z" fill="#4778B1"/>
<path d="M26.849 22.8717H13.9217C13.3725 22.8717 12.9272 22.4265 12.9272 21.8773V19.3913C12.9272 16.906 14.5994 14.6128 17.1873 13.5493C17.6122 13.3748 18.1012 13.5138 18.3707 13.8858C18.8379 14.5311 19.5911 14.9164 20.3853 14.9164C21.1796 14.9164 21.9328 14.5311 22.4001 13.8858C22.6695 13.5138 23.1587 13.3747 23.5835 13.5494C24.5565 13.9494 25.4354 14.5408 26.125 15.2599C26.5051 15.6563 26.4918 16.2857 26.0956 16.6659C25.6993 17.046 25.0698 17.0329 24.6895 16.6365C24.3393 16.2714 23.9183 15.9503 23.45 15.6891C22.627 16.4613 21.53 16.9053 20.3853 16.9053C19.24 16.9053 18.1425 16.4609 17.3194 15.6878C15.8213 16.5164 14.9161 17.8884 14.9161 19.3913V20.8829H25.8546V20.5356C25.8546 19.9863 26.2999 19.5411 26.849 19.5411C27.3981 19.5411 27.8434 19.9863 27.8434 20.5356V21.8773C27.8434 22.4265 27.3981 22.8717 26.849 22.8717Z" fill="#4778B1"/>
<path d="M20.3853 16.9048C18.9553 16.9048 17.6 16.2121 16.7598 15.0519C16.2042 14.2846 15.9104 13.378 15.9104 12.43C15.9104 12.3319 15.9137 12.2323 15.92 12.1341C16.0642 9.9093 17.85 8.11727 20.0738 7.96572C20.1775 7.95866 20.2823 7.95508 20.3854 7.95508C22.8528 7.95508 24.8602 9.9625 24.8602 12.4299C24.8602 13.378 24.5666 14.2846 24.0108 15.0519C23.1705 16.2122 21.8151 16.9048 20.3853 16.9048ZM20.3853 9.9439C20.3272 9.9439 20.2678 9.94599 20.2091 9.94997C18.9754 10.034 17.9847 11.0284 17.9047 12.263C17.9011 12.3186 17.8992 12.3747 17.8992 12.4299C17.8992 12.9563 18.0623 13.4596 18.3706 13.8854C18.8379 14.5306 19.591 14.916 20.3853 14.916C21.1795 14.916 21.9327 14.5306 22.4 13.8854C22.7084 13.4597 22.8713 12.9564 22.8713 12.4299C22.8713 11.0591 21.7561 9.9439 20.3853 9.9439Z" fill="#4778B1"/>
<path d="M33.8099 10.939C33.5484 10.939 33.2918 10.8326 33.1069 10.6477C32.9219 10.4627 32.8155 10.2061 32.8155 9.94461C32.8155 9.68208 32.9218 9.42652 33.1069 9.24156C33.2918 9.0566 33.5484 8.9502 33.8099 8.9502C34.0714 8.9502 34.328 9.0566 34.5129 9.24156C34.6978 9.42652 34.8043 9.68308 34.8043 9.94461C34.8043 10.2061 34.6979 10.4627 34.5129 10.6477C34.328 10.8326 34.0714 10.939 33.8099 10.939Z" fill="#4778B1"/>
<path d="M6.96084 10.939C6.69931 10.939 6.44275 10.8326 6.25779 10.6477C6.07293 10.4627 5.96643 10.2061 5.96643 9.94461C5.96643 9.68208 6.07283 9.42652 6.25779 9.24156C6.44275 9.0556 6.69931 8.9502 6.96084 8.9502C7.22237 8.9502 7.47893 9.0556 7.66389 9.24156C7.84876 9.42652 7.95526 9.68208 7.95526 9.94461C7.95526 10.2061 7.84886 10.4627 7.66389 10.6477C7.47893 10.8326 7.22237 10.939 6.96084 10.939Z" fill="#4778B1"/>
</svg>
