<svg width="66" height="38" viewBox="0 0 66 38" fill="none" xmlns="http://www.w3.org/2000/svg">
<path d="M54.8854 15.4679C54.363 15.4679 53.8408 15.5095 53.3246 15.5841L53.0178 14.9052C53.0977 14.8981 53.1767 14.8906 53.2597 14.8843L57.0249 14.6032C57.6272 14.5577 58.1753 14.2499 58.5265 13.7519C58.8818 13.2486 58.9967 12.6142 58.8396 12.0118C58.314 9.97734 56.5469 5.47194 50.8521 2.06683C50.8283 2.05071 50.8031 2.03475 50.7781 2.02139C49.579 1.3093 48.208 0.648176 46.6404 0.0671752C46.0777 -0.141586 45.4584 0.152827 45.2536 0.72032C45.0477 1.29058 45.3368 1.91962 45.8981 2.12838C47.1963 2.60761 48.3427 3.14824 49.3556 3.72111C49.5737 4.53666 49.8362 5.97281 49.6134 7.04578L48.299 4.37164C48.1273 4.02366 47.7853 3.79341 47.401 3.7667C46.9903 3.78282 46.6469 3.92726 46.4329 4.2513L44.5662 7.07418C43.9752 6.27966 43.8754 5.41054 43.8616 5.24184C43.8325 4.8082 43.5538 4.43335 43.1497 4.28615L36.4287 1.83136C32.0321 0.139473 28.6141 1.97857 26.5157 3.82303C25.0575 5.10262 24.1542 6.94708 23.9931 8.93599L17.9774 7.09429C17.0067 6.79711 16.1681 6.21089 15.5063 5.34085C14.2424 3.68105 12.3314 2.6773 10.2645 2.58889L1.12796 2.1927C0.571955 2.17658 0.170435 2.50861 0.0383623 3.00119C-0.0950737 3.49377 0.128177 4.01583 0.574529 4.25667L25.7046 17.7861C25.471 18.8165 25.2623 19.8551 25.0786 20.898L22.8208 21.0821C21.257 16.2365 16.8112 12.9273 11.7027 12.9273C5.24979 12.9273 4.26611e-05 18.2492 4.26611e-05 24.7889C4.26611e-05 31.3261 5.24979 36.648 11.7027 36.648C17.0503 36.648 21.6692 32.99 23.0134 27.8327H24.2126L24.0623 29.4227C24.049 29.538 24.0534 29.6562 24.0778 29.7734C24.08 29.7842 24.0832 29.7948 24.0858 29.8054C24.0914 29.829 24.097 29.8526 24.1043 29.8761C24.1114 29.8993 24.1202 29.922 24.1289 29.9447C24.1327 29.9546 24.1355 29.9645 24.1395 29.9744C24.14 29.9753 24.1405 29.976 24.1409 29.977C24.1601 30.0227 24.1829 30.0671 24.2082 30.1101C24.2147 30.1211 24.2215 30.1315 24.2283 30.1423C24.2484 30.1739 24.2703 30.2045 24.2936 30.2341C24.3015 30.2441 24.3086 30.2545 24.3168 30.264C24.3181 30.2656 24.3192 30.2672 24.3204 30.2688C24.3474 30.2999 24.3761 30.3289 24.4061 30.3567C24.421 30.3705 24.4364 30.383 24.452 30.3959C24.4714 30.412 24.4912 30.4272 24.5117 30.4419C24.5294 30.4547 24.5468 30.4674 24.5653 30.4791C24.5976 30.4993 24.6307 30.5182 24.665 30.5349C24.6862 30.5454 24.7081 30.554 24.7299 30.5629C24.7495 30.5709 24.7692 30.5787 24.7892 30.5856C24.8123 30.5936 24.8354 30.6011 24.859 30.6074C24.8784 30.6126 24.8982 30.6165 24.9181 30.6206C24.9606 30.6295 25.0035 30.6358 25.0469 30.6395C25.0606 30.6407 25.0741 30.6429 25.0878 30.6435L25.1207 30.645C25.126 30.6452 25.1313 30.6462 25.1368 30.6462C25.1383 30.6462 25.1399 30.6459 25.1415 30.6459L40.841 31.3583C40.8701 31.3609 40.8992 31.3609 40.9269 31.3609C41.4222 31.3609 41.9055 31.1655 42.2622 30.8175C42.6385 30.4508 42.8445 29.9556 42.842 29.4256C42.8324 27.2689 43.1702 21.088 47.0525 17.4711L47.506 18.3111C45.1226 20.4504 43.7703 23.4774 43.7703 26.7353C43.7703 32.946 48.7559 38 54.8851 38C61.0144 38 66 32.9458 66 26.7353C66.0003 20.5219 61.0147 15.4679 54.8854 15.4679ZM60.0163 26.7352C60.0163 29.6023 57.7144 31.9338 54.8854 31.9338C52.0565 31.9338 49.7559 29.6021 49.7559 26.7352C49.7559 25.6453 50.0964 24.5897 50.7117 23.7151C50.8378 23.7656 50.9726 23.7933 51.1097 23.7933C51.2655 23.7933 51.4253 23.7585 51.5759 23.6836L52.3041 23.3304L53.5755 26.6925C53.7405 27.1315 54.1513 27.3992 54.5858 27.3992C54.7153 27.3992 54.846 27.3751 54.9728 27.3269C55.5314 27.11 55.8101 26.4756 55.5962 25.9109L54.2629 22.3805L55.0536 21.9971C55.2479 21.9033 55.4013 21.7578 55.5066 21.5846C57.9698 21.9186 60.0163 24.091 60.0163 26.7352ZM47.1923 7.04072L47.895 8.46935C47.8519 8.47089 47.8097 8.47288 47.7641 8.47288C47.2273 8.47288 46.7652 8.40519 46.3655 8.29037L47.1923 7.04072ZM5.80731 4.5913L10.1722 4.77873C11.5999 4.84028 12.9206 5.53365 13.8359 6.73556C14.7313 7.91337 15.9463 8.76208 17.3516 9.19295L24.7171 11.4496C25.0433 11.5486 25.392 11.487 25.6654 11.289C25.9387 11.0856 26.1038 10.767 26.1117 10.4243L26.1329 9.44731C26.1673 7.90002 26.8236 6.4545 27.9344 5.47731C30.3353 3.3679 32.9318 2.82973 35.6776 3.8872L41.8108 6.12785C42.0057 7.02199 42.465 8.08928 43.3162 8.96455L42.3879 10.3682C42.0551 10.8715 42.1872 11.5513 42.6837 11.8887C42.8686 12.0146 43.0772 12.0762 43.2845 12.0762C43.6332 12.0762 43.9752 11.9049 44.1839 11.5889L45.1161 10.1797C45.8499 10.4837 46.7245 10.6681 47.7642 10.6681C48.7094 10.6681 49.423 10.4432 49.9613 10.1302C49.9881 10.1155 50.0145 10.1001 50.0395 10.0836C50.4955 9.80235 50.8193 9.45882 51.0435 9.1423C51.8043 8.06887 51.9283 6.63931 51.8359 5.3892C55.2209 8.07961 56.4015 11.0429 56.8677 12.4163L53.0985 12.7001C51.948 12.7852 51.017 12.9464 50.1852 13.2007L37.3255 13.2033C36.3719 13.23 35.5307 13.7575 35.0777 14.6088C34.63 15.452 34.6577 16.4371 35.1516 17.2456C35.7393 18.2093 35.8674 19.2399 35.5307 20.3081C34.9773 22.0662 32.9118 24.7406 26.3899 27.7907L26.5302 26.2991C26.8102 23.3384 27.3041 20.3697 28.0015 17.4759C28.119 16.9886 27.8945 16.4827 27.4573 16.2471L5.80731 4.5913ZM24.4238 25.6377H13.2799C12.8506 25.6377 12.502 25.2843 12.502 24.8507C12.502 24.4357 12.811 24.0983 13.2191 24.0637L22.0565 23.3431C22.0747 23.3425 22.093 23.3402 22.1114 23.3387L24.7269 23.1255C24.6089 23.962 24.5085 24.8 24.4238 25.6377ZM13.2797 27.8327H16.2562C15.3047 29.1725 13.7588 30.0091 12.0726 30.0091C9.23046 30.0091 6.91797 27.6666 6.91797 24.7889C6.91797 21.9085 9.23046 19.5662 12.0726 19.5662C13.7099 19.5662 15.2121 20.3457 16.1716 21.6241L13.0433 21.879C11.5272 22.0049 10.3385 23.3112 10.3385 24.8505C10.3385 26.4943 11.6579 27.8327 13.2797 27.8327ZM11.7029 34.4529C6.44254 34.4529 2.16349 30.119 2.16349 24.7891C2.16349 19.4592 6.44254 15.1225 11.7029 15.1225C15.6884 15.1225 19.1798 17.5924 20.5892 21.2641L18.5961 21.4265C17.3537 18.9479 14.847 17.3712 12.0726 17.3712C8.03786 17.3712 4.75467 20.6986 4.75467 24.7891C4.75467 28.8768 8.03786 32.2043 12.0726 32.2043C14.9659 32.2043 17.5736 30.47 18.7456 27.8327H20.7584C19.4867 31.7385 15.8656 34.4529 11.7029 34.4529ZM40.6788 29.1551L29.5509 28.6509C34.0474 26.2332 36.7474 23.6606 37.5924 20.9743C38.262 18.8488 37.636 17.1463 36.9927 16.0942C36.8778 15.9068 36.9373 15.7355 36.9821 15.6498C37.0218 15.5749 37.1406 15.4008 37.3571 15.3955H46.0939C41.2671 19.3856 40.7024 26.4007 40.6788 29.1551ZM50.6644 15.3466C50.6673 15.3457 50.67 15.3447 50.6729 15.3437C50.6745 15.3433 50.6761 15.3427 50.6776 15.342C50.7224 15.3273 50.7691 15.314 50.8148 15.2998L53.1592 20.4845L52.4395 20.8338C52.4241 20.8412 52.4085 20.8483 52.3933 20.8563L51.5651 21.2581L48.8173 16.1677C49.3791 15.8452 49.9931 15.5682 50.6644 15.3466ZM54.8854 35.8048C49.95 35.8048 45.9339 31.7358 45.9339 26.7352C45.9339 24.2815 46.8873 21.9945 48.5796 20.2984L49.4161 21.8477C48.2491 23.1913 47.5926 24.9279 47.5926 26.7352C47.5926 30.8122 50.864 34.129 54.8854 34.129C58.9068 34.129 62.1796 30.8123 62.1796 26.7352C62.1796 22.7104 58.8752 19.46 55.0272 19.3512L54.2749 17.6863C54.4782 17.6725 54.6817 17.663 54.8856 17.663C59.821 17.663 63.8372 21.732 63.8372 26.7352C63.837 31.7358 59.8207 35.8048 54.8854 35.8048Z" fill="#4778B1"/>
</svg>
