<svg width="50" height="51" viewBox="0 0 50 51" fill="none" xmlns="http://www.w3.org/2000/svg">
<path d="M24.979 10.437C16.6728 10.437 9.91986 17.1883 9.91986 25.4945C9.91986 33.791 16.6728 40.5531 24.979 40.5531C33.2869 40.5531 40.0382 33.7905 40.0382 25.4945C40.0382 17.1883 33.2869 10.437 24.979 10.437ZM24.979 37.9968C18.0923 37.9968 12.4767 32.3942 12.4767 25.4945C12.4767 18.6078 18.081 12.9932 24.979 12.9932C31.8771 12.9932 37.4814 18.6072 37.4814 25.4945C37.4814 32.3829 31.8674 37.9968 24.979 37.9968Z" fill="#4778B1"/>
<path d="M49.1479 27.5615L48.2401 26.3092C47.8129 25.7244 47.8021 24.922 48.2305 24.327L49.1168 23.0639C49.8155 22.0722 50.0659 20.8199 49.7854 19.6299C49.5032 18.4399 48.7314 17.429 47.6559 16.8549L46.2987 16.1245C45.651 15.78 45.3082 15.0705 45.4227 14.3497L45.6828 12.8265C45.8811 11.6257 45.5581 10.3944 44.7965 9.4452C44.0247 8.4949 42.8857 7.922 41.6764 7.8693L40.1311 7.80697C39.4007 7.77523 38.7734 7.28393 38.5762 6.58523L38.128 5.11303C37.6061 3.30763 35.9253 2.04567 34.0366 2.04567C33.4626 2.04567 32.8886 2.1607 32.3559 2.3902L30.9364 2.99483C30.2791 3.27703 29.4755 3.10023 29.0063 2.56757L27.9733 1.4195C27.1703 0.521333 26.0126 0 24.813 0C23.5805 0 22.4126 0.532667 21.5977 1.46087L20.5959 2.6299C20.1267 3.1722 19.3328 3.36033 18.6658 3.08947L17.2355 2.5058C16.7142 2.2967 16.1719 2.18223 15.6183 2.18223C13.7092 2.18223 12.0182 3.4663 11.5162 5.31307L11.1093 6.80453C10.9212 7.50437 10.2956 8.0053 9.56513 8.04667L8.0306 8.14073C6.8202 8.20307 5.6829 8.79807 4.9315 9.758C4.17897 10.7179 3.8775 11.9606 4.09567 13.1501L4.37787 14.6636C4.5133 15.3833 4.16877 16.1041 3.5324 16.4583L2.18657 17.2097C1.12124 17.8047 0.360201 18.8269 0.0989682 20.0169C-0.162265 21.2069 0.0989684 22.4587 0.819768 23.4396L1.72757 24.6817C2.15483 25.2671 2.16617 26.0695 1.7372 26.6639L0.850368 27.927C0.151668 28.9193 -0.0987983 30.171 0.182268 31.361C0.464468 32.551 1.23627 33.5625 2.31123 34.136L3.6684 34.8664C4.3161 35.211 4.65894 35.9204 4.5439 36.6412L4.2838 38.1644C4.08603 39.3635 4.40847 40.5966 5.17063 41.5457C5.94243 42.496 7.08143 43.0689 8.29013 43.1211L9.83543 43.1834C10.5659 43.2151 11.1926 43.7053 11.3904 44.4046L11.8176 45.8864C12.339 47.6918 14.0203 48.9549 15.9084 48.9549C16.4824 48.9549 17.0565 48.8404 17.5891 48.6104L19.0069 48.0052C19.6654 47.7241 20.4695 47.9009 20.9381 48.4336L21.9717 49.5805C22.7781 50.4787 23.9358 51 25.1354 51C26.3679 51 27.5358 50.4685 28.3507 49.5391L29.3616 48.3701C29.832 47.8278 30.6247 47.6397 31.2928 47.9105L32.722 48.4953C33.2433 48.7039 33.7873 48.8189 34.3404 48.8189C36.2495 48.8189 37.9404 47.5348 38.4408 45.6881L38.8476 44.1955C39.0358 43.4968 39.6625 42.9964 40.3929 42.9533L41.9371 42.8604C43.1588 42.7873 44.2854 42.2019 45.0362 41.2426C45.7887 40.2821 46.0902 39.0513 45.872 37.8516L45.5898 36.3381C45.4544 35.6173 45.7989 34.8976 46.4353 34.5434L47.7811 33.7909C48.8465 33.1965 49.6075 32.1736 49.8693 30.9842C50.1305 29.7942 49.8693 28.5424 49.1479 27.5615ZM47.3743 30.4306C47.2706 30.9111 46.9674 31.3078 46.5401 31.5486L45.1943 32.3C43.5969 33.1863 42.7418 34.9917 43.075 36.7863L43.3572 38.2999C43.4512 38.7912 43.3254 39.2711 43.024 39.657C42.7208 40.0435 42.2822 40.273 41.7818 40.3036L40.2473 40.3977C38.4209 40.5031 36.866 41.7548 36.3866 43.5189L35.9797 45.0007C35.7814 45.7408 35.1025 46.2525 34.3415 46.2525C34.1211 46.2525 33.9029 46.2111 33.6938 46.1278L32.2635 45.543C31.7416 45.3339 31.1993 45.2189 30.6463 45.2189C29.4149 45.2189 28.2464 45.7515 27.4327 46.6797L26.4201 47.8397C26.0965 48.2143 25.6369 48.4228 25.136 48.4228C24.6464 48.4228 24.1965 48.225 23.874 47.8601L22.8404 46.712C22.0369 45.8144 20.8786 45.2925 19.6682 45.2925C19.0829 45.2925 18.5202 45.407 17.9875 45.6371L16.568 46.2411C16.3493 46.3352 16.1311 46.3783 15.901 46.3783C15.1485 46.3783 14.4815 45.8756 14.2724 45.1565L13.8452 43.6747C13.3335 41.922 11.7672 40.6895 9.94083 40.6068L8.39667 40.5444C7.90537 40.524 7.45713 40.3036 7.15453 39.9177C6.84173 39.5318 6.71763 39.0524 6.80037 38.5719L7.06047 37.0487C7.36363 35.2427 6.48757 33.4583 4.86917 32.5924L3.51313 31.862C3.07453 31.6325 2.77137 31.2352 2.6569 30.7553C2.54244 30.2753 2.63594 29.7851 2.92834 29.3885L3.81517 28.1254C4.86917 26.6345 4.85953 24.6409 3.7738 23.1591L2.866 21.917C2.57417 21.5197 2.46877 21.0301 2.5838 20.5502C2.6892 20.0702 2.9918 19.673 3.41963 19.4338L4.76547 18.6824C6.36177 17.7956 7.21857 15.9902 6.88367 14.1944L6.61224 12.6922C6.51817 12.2009 6.64397 11.7209 6.94544 11.335C7.2486 10.9491 7.6872 10.7196 8.18757 10.689L9.7221 10.595C11.5485 10.4896 13.0921 9.2378 13.5834 7.47377L13.9902 5.9823C14.188 5.24053 14.8674 4.72883 15.6285 4.72883C15.8483 4.72883 16.0671 4.7719 16.2762 4.85463L17.7064 5.4383C18.2278 5.6474 18.7701 5.76187 19.3237 5.76187C20.5551 5.76187 21.7241 5.2292 22.5373 4.301L23.5499 3.1433C23.8735 2.76703 24.333 2.55793 24.834 2.55793C25.3236 2.55793 25.7735 2.7574 26.0959 3.12233L27.129 4.26927C27.9331 5.16687 29.0908 5.68877 30.3017 5.68877C30.8865 5.68877 31.4498 5.57373 31.9825 5.34423L33.402 4.7396C33.6207 4.64553 33.8389 4.60417 34.0689 4.60417C34.8215 4.60417 35.4884 5.1051 35.6975 5.8242L36.1248 7.30717C36.6365 9.05987 38.2028 10.2912 40.0291 10.3745L41.5733 10.438C42.0646 10.459 42.5128 10.6771 42.8256 11.0636C43.1396 11.4495 43.2637 11.9295 43.1809 12.4094L42.9197 13.9338C42.6165 15.7392 43.4937 17.5225 45.111 18.39L46.4682 19.1205C46.9068 19.3488 47.2088 19.7461 47.3233 20.226C47.4383 20.706 47.3454 21.1973 47.0632 21.5928L46.1769 22.8559C45.1229 24.3485 45.132 26.3409 46.2183 27.8245L47.1261 29.0649C47.3743 29.461 47.4797 29.9506 47.3743 30.4306Z" fill="#4778B1"/>
<path d="M28.6839 21.3521L23.0903 26.9134L21.2736 25.087C20.7726 24.5861 19.9691 24.5861 19.4682 25.087C18.9672 25.588 18.9672 26.3915 19.4585 26.893L22.1825 29.6277C22.4216 29.8669 22.7458 30.0029 23.0903 30.0029C23.4235 30.0029 23.7476 29.8669 23.9879 29.6277L30.4893 23.1672C30.9902 22.6662 30.9902 21.8627 30.5006 21.3618C29.9997 20.8608 29.1848 20.8608 28.6839 21.3521Z" fill="#4778B1"/>
</svg>
